v 6.040175 1.865572 -4.000000
v 6.040175 1.865572 4.000000
v 6.095625 2.160402 -4.000000
v 6.095625 2.160402 4.000000
v 8.103994 1.477418 -4.000000
v 8.103994 1.477418 4.000000
v 8.159445 1.772248 -4.000000
v 8.159445 1.772248 4.000000
vn -0.982770 0.184835 0.000000
vn 0.000000 0.000000 -1.000000
vn -0.184835 -0.982770 0.000000
vn 0.000000 0.000000 1.000000
vn 0.982770 -0.184835 0.000000
vn 0.184835 0.982770 0.000000
f 1//1 2//1 3//1
f 2//1 4//1 3//1
f 1//2 3//2 5//2
f 3//2 7//2 5//2
f 1//3 5//3 2//3
f 2//3 5//3 6//3
f 2//4 6//4 4//4
f 4//4 6//4 8//4
f 5//5 7//5 6//5
f 6//5 7//5 8//5
f 3//6 4//6 7//6
f 4//6 8//6 7//6
